:SAMPLES-PER-SECOND 30
:FULLY-SPECIFIED
:DEGREES
108
root  19.736 37.7746 -5.2217 -141.242 -86.9699 139.388
RightUpLeg  13.9185 -2.4601 -1.3441
RightLeg  17.9295 6.91707 1.63766
RightFoot  -22.2397 -0.243128 -0.988078
RightToes  -1.16417e-010 0 -3.6325e-017
Spine  -1.26009 4.17484 8.74669
Spine1  5.45433 6.84568 -11.9551
HEad  -11.3867 -4.8732 -2.97764
LeftShoulder1  -0.716214 5.33657 -32.9178
LeftArm  1.4057 15.7196 -35.2575
LeftForeArm  28.3408 -14.9353 -6.68704
LeftHand  -0.196909 10.0536 -3.37062
RightShoulder  -0.870244 -5.90749 29.5971
RightArm  21.6375 4.52868 48.9703
RightForeArm  9.96686 16.5267 5.89203
RightHand  -0.0546196 4.48963 -0.916606
LeftUpLeg  -24.1149 1.6678 -1.85088
LeftLeg  14.5673 -1.37541 -0.179864
LeftFoot  8.73235 -0.187395 0.823417
LeftToes  1.47335e-010 -1.29615e-010 3.08757e-011
109
root  18.3361 37.6373 -5.05096 -127.358 -86.0294 125.126
RightUpLeg  14.9083 -0.302399 -2.76509
RightLeg  21.2273 5.73914 2.26361
RightFoot  -22.0644 0.113096 2.78184
RightToes  -1.16417e-010 0 -3.6325e-017
Spine  -1.37411 4.20455 6.72566
Spine1  5.52395 6.90743 -11.8441
HEad  -11.2715 -5.13747 -2.71567
LeftShoulder1  -0.740186 5.38628 -33.1581
LeftArm  0.823072 14.7216 -34.7526
LeftForeArm  29.0378 -14.2877 -6.92573
LeftHand  -0.169884 9.18315 -3.43344
RightShoulder  -0.925391 -6.01963 30.2002
RightArm  19.1847 2.8785 48.9676
RightForeArm  13.7223 13.8624 6.61293
RightHand  -0.0127679 3.54938 -0.42619
LeftUpLeg  -24.5156 0.421408 -3.44882
LeftLeg  20.5876 -0.105359 0.299438
LeftFoot  4.79516 -0.386459 2.52106
LeftToes  1.47335e-010 -1.29615e-010 3.08757e-011
110
root  16.9872 37.641 -4.89589 -124.174 -84.7503 121.111
RightUpLeg  14.799 0.623236 -4.68026
RightLeg  26.8779 6.25625 3.23171
RightFoot  -19.5833 0.428453 8.11373
RightToes  -1.16417e-010 0 -3.6325e-017
Spine  -0.949106 4.41066 4.85549
Spine1  5.7791 7.20865 -12.1037
HEad  -10.9508 -5.41036 -2.80503
LeftShoulder1  -0.702214 5.29459 -33.053
LeftArm  0.0182708 13.7744 -34.7567
LeftForeArm  30.0601 -13.6419 -7.11341
LeftHand  -0.233151 10.1897 -4.0974
RightShoulder  -0.891622 -5.92944 30.1601
RightArm  16.2616 0.774598 49.5426
RightForeArm  17.6992 10.6353 7.26353
RightHand  -0.0309704 3.30221 -0.636393
LeftUpLeg  -22.8956 -0.444342 -5.00497
LeftLeg  23.6899 1.40106 1.00315
LeftFoot  1.96901 -0.49047 4.08445
LeftToes  1.47335e-010 -1.29615e-010 3.08757e-011
111
root  15.675 37.7571 -4.75591 -124.117 -83.572 120.774
RightUpLeg  12.0718 1.33648 -6.71885
RightLeg  34.9632 6.86653 4.89138
RightFoot  -13.3724 0.150606 14.0331
RightToes  -1.16417e-010 0 -3.6325e-017
Spine  -1.63126 4.57055 3.19124
Spine1  6.97579 7.43505 -12.6855
HEad  -10.7033 -4.97931 -2.72981
LeftShoulder1  -0.679318 5.25351 -32.6674
LeftArm  -0.66675 13.0791 -35.0167
LeftForeArm  29.7634 -13.5146 -7.05036
LeftHand  -0.217916 10.373 -3.59371
RightShoulder  -0.895995 -5.92853 30.3537
RightArm  14.8682 -0.776112 50.0338
RightForeArm  21.9423 7.93887 7.58562
RightHand  0.0711489 2.51043 0.818007
LeftUpLeg  -20.8749 -0.548062 -6.40021
LeftLeg  24.8751 2.11073 1.4091
LeftFoot  -0.745416 -0.429671 4.66925
LeftToes  1.47335e-010 -1.29615e-010 3.08757e-011
112
root  14.3601 37.9276 -4.64394 -121.369 -82.8748 118.003
RightUpLeg  7.3124 1.54805 -8.36132
RightLeg  44.6399 6.6084 6.66544
RightFoot  -2.88234 -1.01202 14.45
RightToes  -1.16417e-010 0 -3.6325e-017
Spine  -3.03169 4.21631 1.02691
Spine1  8.39476 6.93962 -11.7516
HEad  -9.82389 -4.23416 -4.25402
LeftShoulder1  -0.669016 5.23224 -32.5475
LeftArm  0.569718 12.5564 -35.1501
LeftForeArm  28.4075 -14.5455 -6.78447
LeftHand  -0.234151 10.9526 -3.48124
RightShoulder  -0.875625 -5.86871 30.4114
RightArm  14.9497 -1.8624 50.335
RightForeArm  24.396 6.37598 7.83144
RightHand  0.0608795 0.9914 1.01411
LeftUpLeg  -18.5954 -0.535881 -7.58149
LeftLeg  24.9734 2.39138 1.56347
LeftFoot  -3.0416 -0.338396 4.9104
LeftToes  1.47335e-010 -1.29615e-010 3.08757e-011
113
root  13.0761 38.0832 -4.55606 -116.14 -83.3512 113.634
RightUpLeg  1.57007 0.48617 -8.82173
RightLeg  52.6381 5.78015 7.64725
RightFoot  6.97223 -1.75959 11.0128
RightToes  -1.16417e-010 0 -3.6325e-017
Spine  -6.35206 3.37399 -0.50873
Spine1  11.4142 5.95974 -10.3519
HEad  -11.3923 -2.84938 -4.8674
LeftShoulder1  -0.677871 5.24562 -32.7333
LeftArm  1.82246 11.1934 -35.1966
LeftForeArm  27.6486 -15.3653 -6.57162
LeftHand  -0.184926 9.59923 -3.46593
RightShoulder  -0.83971 -5.78399 30.1928
RightArm  15.1811 -2.90726 50.5224
RightForeArm  26.6487 6.84619 7.83509
RightHand  0.105426 1.32304 1.70693
LeftUpLeg  -17.4348 -1.78768 -7.77387
LeftLeg  25.2821 2.91937 1.85416
LeftFoot  -5.1622 -0.246421 5.14345
LeftToes  1.47335e-010 -1.29615e-010 3.08757e-011
114
root  11.9773 38.2471 -4.45249 -116.933 -84.3562 115.348
RightUpLeg  -3.83049 -0.434677 -8.19546
RightLeg  57.7944 3.90546 6.24264
RightFoot  3.99155 -1.4725 11.0546
RightToes  -1.16417e-010 0 -3.6325e-017
Spine  -8.45045 2.74293 -0.0986321
Spine1  13.5399 5.26564 -10.2297
HEad  -13.2111 -1.60719 -5.1954
LeftShoulder1  -0.477632 4.74321 -32.3998
LeftArm  3.4423 9.74037 -35.7423
LeftForeArm  26.619 -16.3424 -6.29481
LeftHand  -0.176252 9.52812 -3.32415
RightShoulder  -0.934966 -6.0067 30.7696
RightArm  16.7164 -3.5512 49.4643
RightForeArm  24.5527 8.49899 7.95831
RightHand  0.0746997 1.8628 1.03858
LeftUpLeg  -16.5787 -1.84857 -7.04395
LeftLeg  25.4547 2.70312 1.75814
LeftFoot  -6.94441 -0.170352 5.52187
LeftToes  1.47335e-010 -1.29615e-010 3.08757e-011
115
root  10.8883 38.4621 -4.38653 -119.287 -85.9879 119.367
RightUpLeg  -9.83928 -1.71235 -6.60588
RightLeg  59.8522 2.86824 4.86939
RightFoot  1.45096 -0.980986 8.85259
RightToes  -1.16417e-010 0 -3.6325e-017
Spine  -11.6051 2.05044 0.727749
Spine1  15.693 4.40394 -9.54192
HEad  -14.0329 -1.71878 -5.33954
LeftShoulder1  -0.586536 5.0217 -32.4913
LeftArm  5.39428 7.22828 -36.0768
LeftForeArm  25.0536 -17.1249 -6.12709
LeftHand  -0.192501 10.3943 -2.99883
RightShoulder  -0.893574 -5.90961 30.5361
RightArm  18.1901 -4.54881 48.8472
RightForeArm  20.8995 10.5334 7.68708
RightHand  0.058284 2.86107 0.599261
LeftUpLeg  -16.3328 -1.59426 -5.54357
LeftLeg  25.1483 1.97287 1.36648
LeftFoot  -8.36958 -0.102129 5.87346
LeftToes  1.47335e-010 -1.29615e-010 3.08757e-011
116
root  9.89111 38.6422 -4.29681 -126.934 -87.3678 128.305
RightUpLeg  -15.0629 -2.73211 -5.19041
RightLeg  58.8504 2.14668 3.38108
RightFoot  -0.200526 -0.78839 8.05941
RightToes  -1.16417e-010 0 -3.6325e-017
Spine  -12.7981 1.31669 1.79424
Spine1  15.7502 3.4155 -9.30349
HEad  -13.8559 -2.05831 -5.47099
LeftShoulder1  -0.575771 5.0082 -32.128
LeftArm  6.49686 6.12504 -36.6917
LeftForeArm  23.6979 -18.42 -5.50662
LeftHand  -0.173898 10.2537 -2.68377
RightShoulder  -0.833866 -5.7802 30.009
RightArm  19.536 -5.85418 48.482
RightForeArm  17.9589 12.7591 7.07478
RightHand  0.0634775 3.19422 0.624032
LeftUpLeg  -15.7738 -1.62546 -4.23079
LeftLeg  24.6938 1.62883 1.17498
LeftFoot  -9.60796 -0.0358055 6.18186
LeftToes  1.47335e-010 -1.29615e-010 3.08757e-011
117
root  8.97146 38.7653 -4.22765 -147.868 -87.7231 149.922
RightUpLeg  -19.1777 -2.84421 -4.15461
RightLeg  55.047 1.63841 2.13028
RightFoot  -2.25561 -0.622109 7.62544
RightToes  -1.16417e-010 0 -3.6325e-017
Spine  -12.6017 1.05957 2.68517
Spine1  15.0548 2.97404 -9.1196
HEad  -13.5494 -2.7893 -5.14136
LeftShoulder1  -0.574767 5.00731 -32.0426
LeftArm  7.10731 4.65855 -37.0857
LeftForeArm  22.4654 -19.5127 -4.98313
LeftHand  -0.135729 9.17884 -2.48385
RightShoulder  -0.81435 -5.74052 29.7767
RightArm  20.3271 -6.38962 47.9285
RightForeArm  16.7751 14.2422 6.50284
RightHand  0.0989832 3.2524 1.09394
LeftUpLeg  -14.65 -0.61748 -3.28058
LeftLeg  24.2749 1.06045 0.880905
LeftFoot  -10.9263 0.0425578 6.42343
LeftToes  1.47335e-010 -1.29615e-010 3.08757e-011
